inDegrees=no
num_controls=7
num_derivatives=13
num_iterations=133
num_multipliers=7
num_parameters=0
num_slacks=7
num_states=26
objective=4.796772
objective_accelerations=0.464302
objective_balance=0.017709
objective_effort=0.135561
objective_height=4.127655
objective_ligament=0.051544
solver_duration=1556.723978
status=Solve_Succeeded
success=true
DataType=double
version=3
OpenSimVersion=4.4-2022-07-23-0e9fedc
endheader
time	/jointset/ground_pelvis/pelvis_tilt/value	/jointset/ground_pelvis/pelvis_tx/value	/jointset/ground_pelvis/pelvis_ty/value	/jointset/hip_l/hip_flexion_l/value	/jointset/hip_l/hip_adduction_l/value	/jointset/hip_l/hip_rotation_l/value	/jointset/back/lumbar_extension/value	/jointset/patellofemoral_l/patellar_flexion_l/value	/jointset/knee_l/knee_flexion_l/value	/jointset/knee_l/knee_adduction_l/value	/jointset/knee_l/knee_rotation_l/value	/jointset/ankle_l/ankle_angle_l/value	/jointset/subtalar_l/subtalar_angle_l/value	/jointset/ground_pelvis/pelvis_tilt/speed	/jointset/ground_pelvis/pelvis_tx/speed	/jointset/ground_pelvis/pelvis_ty/speed	/jointset/hip_l/hip_flexion_l/speed	/jointset/hip_l/hip_adduction_l/speed	/jointset/hip_l/hip_rotation_l/speed	/jointset/back/lumbar_extension/speed	/jointset/patellofemoral_l/patellar_flexion_l/speed	/jointset/knee_l/knee_flexion_l/speed	/jointset/knee_l/knee_adduction_l/speed	/jointset/knee_l/knee_rotation_l/speed	/jointset/ankle_l/ankle_angle_l/speed	/jointset/subtalar_l/subtalar_angle_l/speed	/forceset/tau_hip_flexion_l	/forceset/tau_hip_adduction_l	/forceset/tau_hip_rotation_l	/forceset/tau_knee_flexion_l	/forceset/tau_ankle_angle_l	/forceset/tau_subtalar_angle_l	/forceset/tau_lumbar_extension	lambda_cid13_p0	lambda_cid13_p1	lambda_cid13_p2	lambda_cid13_p3	lambda_cid13_p4	lambda_cid13_p5	lambda_cid14_p0	/jointset/ground_pelvis/pelvis_tilt/accel	/jointset/ground_pelvis/pelvis_tx/accel	/jointset/ground_pelvis/pelvis_ty/accel	/jointset/hip_l/hip_flexion_l/accel	/jointset/hip_l/hip_adduction_l/accel	/jointset/hip_l/hip_rotation_l/accel	/jointset/back/lumbar_extension/accel	/jointset/patellofemoral_l/patellar_flexion_l/accel	/jointset/knee_l/knee_flexion_l/accel	/jointset/knee_l/knee_adduction_l/accel	/jointset/knee_l/knee_rotation_l/accel	/jointset/ankle_l/ankle_angle_l/accel	/jointset/subtalar_l/subtalar_angle_l/accel	gamma_cid13_p0	gamma_cid13_p1	gamma_cid13_p2	gamma_cid13_p3	gamma_cid13_p4	gamma_cid13_p5	gamma_cid14_p0
1.5	-0.2661467831542101	0.0881921117435636	0.8246900591859038	0.7883484343999198	-0.3697345452105423	-0.0794446330727314	-0.3059344175135362	0.6855274785139849	0.6855274785139844	-0.0800274143120982	-0.1723315639693077	0.2688298785622595	0.1378928628214031	0.2794261757995115	0.2076666634373911	0.3354154071763671	-1.728298488021108	0.02247284529390613	-0.5598727090477219	0.619018832551951	-1.847994249176903	-1.847994249176899	-0.2198355625583599	0.03402775443555271	-0.5487032559066052	-0.1753173198821196	-0.100094437258264	0.02586520030900692	0.0113619037684816	-0.1260178643048149	-0.05595224148166776	0.01030306189724176	0.1054001956463439	-41.76337402645289	-0.08210500506518972	3.067364095694429	0.2609675992176245	-437.3353630644735	-65.45815779732993	-15.82646897471012	0.2631009712502187	0.3239204990715558	-0.5564866424763153	-0.8684418968978664	0.265947064759765	-0.252294277118537	1.142781713438696	-0.9246101052838294	-0.9246101052838295	-0.276445353148565	0.3709808860773496	-0.3731517241688294	0.3701012351219886	1.694076702605391e-07	3.01646066305557e-06	-2.15577265449971e-06	3.057721880240928e-07	5.181634665945401e-07	2.583840984798597e-06	4.81736113868371e-07
1.51	-0.2633394044551756	0.09028467273703591	0.8280157185471798	0.7710234343575488	-0.3694979848094141	-0.08505648306085707	-0.2996885687618837	0.667003214251393	0.6670032142513928	-0.08224190823986526	-0.1719754154176505	0.2633243281304751	0.1361562564990333	0.2820006160661758	0.2108084496536977	0.3296465703122945	-1.736448685365538	0.02484563319316321	-0.5624132072135803	0.6300454921630372	-1.856599079587471	-1.856599079587469	-0.2230473335031269	0.03723217931311022	-0.5523286305399082	-0.171976235954948	-0.09687406495174634	0.02465954634253201	0.01190981146359665	-0.1234861315085308	-0.05539711146403604	0.009012831989934411	0.1025460787116588	-41.57071756495714	0.3698796122015892	3.080549453118894	0.4168002616572148	-435.2256104595938	-64.97672333298858	-16.55439172365064	0.2472952935212926	0.3038163858418663	-0.5974740110111365	-0.7503574522078197	0.2238821104336542	-0.2418639165357171	1.066794242614128	-0.7895881130076329	-0.7895881130078082	-0.3407694197421791	0.2994033851180264	-0.3453862076242789	0.3199872726658294	1.500102344695765e-07	3.20192168744292e-06	-2.050959895123379e-06	3.400558921776904e-07	4.811363407570163e-07	2.623555266613986e-06	4.844419214278313e-07
1.52	-0.2605077454056451	0.09240755333325763	0.831281611179288	0.753624522581935	-0.3692375090377084	-0.09069112529668456	-0.293335616182586	0.6484006679638825	0.6484006679638825	-0.08448796516800021	-0.1715863765979131	0.257784892777415	0.1344538360761653	0.2842822458987101	0.2137305839872705	0.3234620613426828	-1.743080834669658	0.02725591940941932	-0.5644311585880891	0.6404395980809447	-1.863650654160611	-1.863650654160609	-0.2261481626319471	0.0406058080515907	-0.5554802401617406	-0.1684801399817331	-0.09365369264522848	0.02345389237605711	0.01245771915871194	-0.1209543987122474	-0.05484198144640431	0.007722602082627071	0.0996919617769738	-41.37846720319548	0.8154286539070509	3.102194508243749	0.5490418231905084	-433.1549447628585	-64.57200277694328	-17.27189857244894	0.2045388844242361	0.2799901225247802	-0.6396210635844422	-0.5648322888360294	0.2734467281595726	-0.1477849188487496	1.016270974802924	-0.6139589377980893	-0.6139589377981118	-0.254256989958884	0.4048216582619424	-0.2783987218746579	0.4011036443306555	1.310043092967423e-07	3.382051265747309e-06	-1.946734158401952e-06	3.713963765637248e-07	4.489883322809383e-07	2.657838375570858e-06	4.864097525873439e-07
1.53	-0.2576547769182967	0.0945585245233556	0.8344836398492289	0.7361669590925519	-0.3689527375519079	-0.09634409756748695	-0.2868819473170798	0.6297354996233647	0.6297354996233648	-0.08676402686206258	-0.1711633540383112	0.252216367253998	0.1327871996724521	0.2862598232005026	0.2164229177436327	0.3168807099281579	-1.748171822637185	0.02969880515804856	-0.5660905939112588	0.6501790338185793	-1.869115258504082	-1.869115258504079	-0.2290448962354686	0.04400908882147175	-0.5581438947384113	-0.1648278105554957	-0.09039972853956837	0.02203596125763333	0.01296980838863039	-0.1185322215724974	-0.05423142376196376	0.006367084199506821	0.09681391462614712	-41.18157831540268	1.290653943945912	3.116669617849058	0.7041593402008973	-431.2210857108718	-64.16298822963303	-17.9752450081181	0.1866417493798848	0.2578275016447761	-0.6767550701607153	-0.4422048005840078	0.2296677371650686	-0.1636750712945668	0.9355086929872006	-0.4726455122303707	-0.4726455122302085	-0.3040379272583797	0.3093705799574946	-0.2480819173287374	0.3498362332861742	1.124143641556694e-07	3.556516182588552e-06	-1.84313213325136e-06	3.996096899467233e-07	4.220243860013965e-07	2.686350863365558e-06	4.875934838219124e-07
1.54	-0.2547835777386658	0.09673521355090778	0.8376179824270699	0.7186662911735188	-0.3686435455608312	-0.1020113946379697	-0.2803343383302486	0.6110236983734905	0.6110236983734908	-0.08906838716850209	-0.1707060408122893	0.2466236585664613	0.1311575942913045	0.2879283843552204	0.2188741514781104	0.309924842922663	-1.751701720599631	0.03214002046469598	-0.5672961185241676	0.6592276223459493	-1.872977236031904	-1.872977236031901	-0.2318078851073741	0.04746394133560515	-0.5603168729857	-0.1610739354686224	-0.08714576443390809	0.02061803013920955	0.01348189761854889	-0.1161100444327473	-0.05362086607752321	0.005011566316386585	0.09393586747532064	-40.98642085158507	1.760478685366509	3.138521966294163	0.8397602854677128	-429.3462444302838	-63.82946349782321	-18.66058684524721	0.1427356550093062	0.2317701181480598	-0.7145241817784683	-0.2526142878197836	0.2731126397631501	-0.05700277679654846	0.8781015327496826	-0.2934335746684648	-0.2934335746684648	-0.2275080436356855	0.41513600711241	-0.1802634559982078	0.4214127764578611	9.244068569166275e-08	3.719901112746863e-06	-1.734481430577776e-06	4.263479648213208e-07	3.901796112308231e-07	2.699374965152604e-06	4.877002966511196e-07
